PathFileType	4	(X/Y/Z)	./resultDataOpenSim/trcMotMarkerGrf/sub10/qtm-04-05.trc
DataRate	CameraRate	NumFrames	NumMarkers	Units	OrigDataRate	OrigDataStartFrame	OrigNumFrames
250.000000	250.000000	9	24	m	250.000000	1	493
Frame#	Time	L.Toe.Tip			R.Toe.Tip			L.Ankle.Lat			R.Ankle.Lat			L.Ankle.Med			R.Ankle.Med			L.Heel			R.Heel			L.Knee.Lat			R.Knee.Lat			L.Knee.Med			R.Knee.Med			L.Thigh.Upper			R.Thigh.Upper			L.ASIS			R.ASIS			V.Sacral			L.Acromium			R.Acromium			C7			L.Elbow			R.Elbow			L.Wrist.Lat			R.Wrist.Lat
		X1	Y1	Z1	X2	Y2	Z2	X3	Y3	Z3	X4	Y4	Z4	X5	Y5	Z5	X6	Y6	Z6	X7	Y7	Z7	X8	Y8	Z8	X9	Y9	Z9	X10	Y10	Z10	X11	Y11	Z11	X12	Y12	Z12	X13	Y13	Z13	X14	Y14	Z14	X15	Y15	Z15	X16	Y16	Z16	X17	Y17	Z17	X18	Y18	Z18	X19	Y19	Z19	X20	Y20	Z20	X21	Y21	Z21	X22	Y22	Z22	X23	Y23	Z23	X24	Y24	Z24

1	0	-1.4931646	0.038395653	-0.15031171	-0.89668629	0.08550849	0.0038239626	-1.6080262	0.10170511	-0.19794166	-1.0375689	0.068801032	0.0076577072	-1.6126587	0.12386045	-0.11619855	-1.0089665	0.10694045	-0.066079881	-1.6816044	0.097099323	-0.16536351	-1.0669983	0.03556698	-0.055468472	-1.4377142	0.44973717	-0.22756764	-1.1147059	0.46086251	0.052047512	-1.4405677	0.42704595	-0.10583584	-1.0788656	0.47693729	-0.071428556	-1.3129159	0.8247698	-0.28179598	-1.2592336	0.85065541	0.10038358	-1.2275204	0.92436377	-0.22490048	-1.1919474	0.93821956	0.017464051	-1.4054635	0.95941995	-0.072461486	-1.2324776	1.3992398	-0.25721796	-1.2472802	1.4101077	0.063130134	-1.3137038	1.4398661	-0.10672763	-1.3311887	1.0590335	-0.3200977	-1.4127343	1.1039232	0.11582343	-1.1140721	0.93118758	-0.28804122	-1.3298919	0.88628939	0.19107534
2	0.004	-1.4932173	0.038365222	-0.1502458	-0.88328944	0.087961667	0.0029590221	-1.6078745	0.10205756	-0.19766842	-1.0235319	0.069179083	0.0086476088	-1.6085139	0.1247304	-0.11634056	-0.9968385	0.10747667	-0.065607405	-1.6814258	0.097787661	-0.16510986	-1.0532311	0.035073527	-0.054345783	-1.4362035	0.4492763	-0.22741404	-1.1094908	0.45937312	0.052376741	-1.4389296	0.42643523	-0.10565159	-1.0743133	0.47524905	-0.071515277	-1.3094876	0.82353454	-0.28178335	-1.253599	0.849227	0.10062187	-1.2236774	0.92261055	-0.22510022	-1.1867336	0.93689209	0.017218764	-1.4010074	0.95760342	-0.07193657	-1.2279526	1.3976888	-0.25759536	-1.2425373	1.4086903	0.062778348	-1.3092811	1.4384367	-0.10707606	-1.3245154	1.0565682	-0.31961721	-1.4084739	1.102536	0.11566837	-1.1056752	0.9322394	-0.28651118	-1.3276045	0.88498348	0.19199731
3	0.008	-1.4932691	0.038337042	-0.15017866	-0.86984973	0.09045518	0.0022606678	-1.6076913	0.10242764	-0.19740304	-1.009786	0.069588106	0.0095689029	-1.6041977	0.12560846	-0.11644524	-0.98490334	0.10808173	-0.065175631	-1.6812236	0.09850956	-0.16486822	-1.0396755	0.03474668	-0.053239862	-1.4346889	0.44885298	-0.22728225	-1.1043571	0.45785594	0.052708413	-1.437299	0.42582304	-0.10546341	-1.0697856	0.47356318	-0.071575506	-1.3060285	0.82231357	-0.28177532	-1.2479611	0.84780651	0.1008696	-1.2197819	0.92085565	-0.22528498	-1.1814607	0.93553992	0.016983045	-1.3965049	0.95577225	-0.071398104	-1.2233851	1.39614	-0.25793423	-1.2377676	1.4072715	0.06244678	-1.3048261	1.4370088	-0.1073679	-1.3178292	1.0541169	-0.31917982	-1.404167	1.1011524	0.11551707	-1.0972866	0.93331138	-0.28493745	-1.3252316	0.88367866	0.19291525
4	0.012	-1.4933162	0.038310791	-0.15011163	-0.85656214	0.093015291	0.0017203924	-1.6074623	0.10284036	-0.19715205	-0.99656413	0.070011614	0.010360187	-1.6002943	0.12643653	-0.11649218	-0.97329882	0.10877105	-0.064805889	-1.68098	0.099283454	-0.16464721	-1.0265568	0.034602409	-0.052106887	-1.4331576	0.44847851	-0.22717661	-1.0993013	0.45632456	0.053035297	-1.4355786	0.42525563	-0.10528831	-1.0652781	0.47187889	-0.07159678	-1.3025148	0.82111996	-0.28176975	-1.2422716	0.84639976	0.10113428	-1.2158064	0.91910318	-0.22545719	-1.1761505	0.93414956	0.016757184	-1.3919119	0.9539185	-0.070826384	-1.2187603	1.3945925	-0.25822706	-1.2329863	1.4058481	0.062156838	-1.3003268	1.4355819	-0.10760281	-1.3111142	1.0516907	-0.31880802	-1.3997757	1.0997591	0.11535962	-1.0888979	0.93440867	-0.28330957	-1.3225963	0.88240754	0.1938088
5	0.016	-1.4933528	0.038285394	-0.15004731	-0.84386491	0.095625251	0.0011365229	-1.6071855	0.10331949	-0.19692769	-0.98396394	0.070434403	0.011005896	-1.5979643	0.12711753	-0.1164813	-0.96211129	0.10951456	-0.064501836	-1.6806856	0.1001236	-0.16445424	-1.0140216	0.034576736	-0.050781917	-1.4315675	0.44815044	-0.22709175	-1.0942207	0.45484697	0.05336331	-1.433695	0.42478266	-0.10514829	-1.0607732	0.47020621	-0.071579445	-1.2989307	0.81996399	-0.28175708	-1.2365014	0.84501402	0.1014243	-1.2117517	0.91736786	-0.22563109	-1.1708597	0.93272869	0.016539295	-1.3872221	0.95203713	-0.07022084	-1.2140955	1.3930482	-0.25848516	-1.2282179	1.4044247	0.061921533	-1.2958019	1.4341543	-0.10782425	-1.304375	1.0493062	-0.31849408	-1.3953049	1.0983628	0.11519784	-1.0805174	0.9355263	-0.28164625	-1.3196012	0.88120125	0.19466176
6	0.02	-1.4933728	0.038261409	-0.14998548	-0.83202042	0.09823479	0.00034247388	-1.6068587	0.10387379	-0.19674943	-0.97193882	0.070869692	0.011540614	-1.5977348	0.12761823	-0.11643177	-0.95136914	0.1102756	-0.064259755	-1.6803326	0.10104454	-0.16430523	-1.0020752	0.034631606	-0.049110839	-1.429856	0.44786687	-0.22702848	-1.0889068	0.45351258	0.053739683	-1.4317019	0.42439831	-0.10503467	-1.0562455	0.46857024	-0.071515796	-1.2952555	0.81882965	-0.28170371	-1.2306288	0.84366902	0.10174517	-1.2076183	0.9156599	-0.22581469	-1.1655761	0.93129452	0.016334468	-1.3824656	0.95012744	-0.069609653	-1.2094077	1.3915137	-0.25871605	-1.2234327	1.4030106	0.061729588	-1.291265	1.4327254	-0.10805317	-1.2976139	1.0469741	-0.31819325	-1.3908128	1.0970585	0.11510223	-1.0721645	0.93665738	-0.27996721	-1.3163345	0.88006181	0.19549039
7	0.024	-1.4933736	0.03824041	-0.14992262	-0.82091081	0.10077034	-0.00066261967	-1.6064779	0.10449132	-0.19662762	-0.96043132	0.071318187	0.012001538	-1.5986975	0.12802147	-0.11636593	-0.94107703	0.11102297	-0.064073801	-1.6799081	0.10204726	-0.16421572	-0.99067175	0.034742726	-0.047231037	-1.4279894	0.44762148	-0.22698244	-1.0831213	0.45237303	0.05423678	-1.4296572	0.4240713	-0.10491624	-1.0516673	0.46700846	-0.071390845	-1.2914743	0.81767845	-0.28155467	-1.2246474	0.84238659	0.10209112	-1.2034052	0.91398254	-0.22600675	-1.1602422	0.92986528	0.016155507	-1.3776837	0.94820537	-0.069032231	-1.2047046	1.3899981	-0.25891832	-1.2185867	1.4016149	0.061555491	-1.2867119	1.4313035	-0.10826562	-1.2908102	1.0446862	-0.31783162	-1.3863987	1.0960417	0.11522407	-1.0638646	0.93779129	-0.27828492	-1.3129651	0.87897662	0.19633352
8	0.028	-1.4933571	0.038223773	-0.14985714	-0.8103097	0.10313717	-0.0018286456	-1.6060398	0.10515454	-0.19654785	-0.9494366	0.071750213	0.01240175	-1.5991586	0.12848402	-0.11629317	-0.93124436	0.1117259	-0.063936686	-1.6794021	0.10312468	-0.16416429	-0.97978062	0.03486785	-0.045538004	-1.4259652	0.44740186	-0.22692592	-1.0767506	0.45142349	0.054899476	-1.4275191	0.42380142	-0.10478008	-1.0470126	0.46555997	-0.07121006	-1.2875806	0.81650497	-0.28126564	-1.2186038	0.84116822	0.10244644	-1.1991196	0.91234183	-0.22621031	-1.1548356	0.92845845	0.016009511	-1.3728829	0.94630371	-0.068489311	-1.1999864	1.3885087	-0.25908563	-1.2136905	1.4002462	0.06139126	-1.2821319	1.4299031	-0.1084278	-1.2839234	1.0424206	-0.31733066	-1.3821159	1.0954412	0.11566972	-1.0556504	0.93891494	-0.27661117	-1.3096015	0.87793186	0.19721866
9	0.032	-1.493326	0.038212541	-0.14979266	-0.8001438	0.10525295	-0.003125624	-1.6055395	0.10586323	-0.19648285	-0.93896454	0.072133492	0.0127511	-1.5980895	0.12913409	-0.11621184	-0.92188197	0.11235487	-0.063836508	-1.6788321	0.10427802	-0.1640416	-0.96939566	0.034965162	-0.044282294	-1.4237756	0.44720041	-0.226828	-1.0699828	0.45062464	0.055673744	-1.4252145	0.42361368	-0.10464077	-1.0422683	0.46425029	-0.07100366	-1.283567	0.81537502	-0.28083127	-1.2125537	0.83999918	0.10278822	-1.1947709	0.91074293	-0.22643161	-1.1493863	0.92708068	0.015880906	-1.3679641	0.94447814	-0.067833176	-1.1952491	1.3870531	-0.25921306	-1.2087932	1.3989127	0.061254802	-1.2775188	1.4285332	-0.10852533	-1.2769269	1.0401662	-0.31664621	-1.3778555	1.0950656	0.11631456	-1.0475524	0.94001875	-0.27495452	-1.3062464	0.87691779	0.19814206
